<?xml version="1.0" standalone="no"?>
<!DOCTYPE svg PUBLIC "-//W3C//DTD SVG 20010904//EN"
 "http://www.w3.org/TR/2001/REC-SVG-20010904/DTD/svg10.dtd">
<svg version="1.0" xmlns="http://www.w3.org/2000/svg"
 width="537.000000pt" height="465.000000pt" viewBox="0 0 537.000000 465.000000"
 preserveAspectRatio="xMidYMid meet">

<g transform="translate(0.000000,465.000000) scale(0.100000,-0.100000)"
fill="#000000" stroke="none">
<path d="M2500 4470 c-161 -11 -347 -52 -540 -117 -189 -63 -239 -87 -404
-190 -368 -229 -633 -522 -832 -923 -121 -243 -170 -408 -210 -713 -29 -220
-7 -553 51 -777 36 -140 121 -358 187 -480 173 -319 481 -619 861 -840 104
-60 132 -73 357 -165 300 -121 649 -172 933 -135 253 32 626 144 804 242 188
102 458 308 564 430 151 172 380 573 443 774 47 152 96 448 111 674 14 194
-27 485 -97 695 -116 349 -283 621 -538 875 -148 149 -287 262 -428 349 -96
60 -221 124 -282 144 -25 9 -83 30 -130 47 -246 91 -555 131 -850 110z m340
-190 c279 -20 525 -93 743 -219 229 -132 518 -385 665 -579 186 -248 343 -639
382 -952 32 -261 -12 -659 -100 -898 -36 -98 -98 -240 -147 -334 -38 -73 -166
-267 -213 -323 -173 -204 -413 -385 -650 -490 -138 -60 -366 -134 -485 -156
-256 -48 -647 -31 -870 37 -344 107 -633 283 -937 573 -127 121 -186 194 -255
316 -176 311 -241 497 -278 797 -52 424 39 867 253 1228 24 41 48 84 52 96 16
41 159 220 236 296 377 368 821 584 1254 608 186 10 214 10 350 0z"/>
<path d="M2425 4133 c-142 -20 -354 -79 -495 -138 -74 -31 -257 -131 -262
-143 -2 -5 -30 -28 -63 -52 -189 -138 -325 -264 -415 -385 -189 -255 -319
-562 -361 -850 -20 -136 -17 -458 5 -575 36 -193 157 -506 257 -666 132 -209
232 -311 509 -515 237 -175 407 -260 646 -322 337 -88 580 -83 914 19 402 123
536 200 790 454 225 224 332 395 429 685 83 250 114 422 113 627 -2 305 -61
565 -192 843 -87 187 -165 294 -333 459 -167 164 -237 219 -402 318 -142 85
-172 99 -280 138 -233 82 -404 110 -655 108 -96 0 -188 -3 -205 -5z m-413
-503 c52 -15 121 -85 141 -145 37 -107 10 -209 -70 -267 -71 -52 -154 -47
-235 15 -115 88 -121 243 -14 346 60 58 105 71 178 51z m1618 -24 c0 -34 -31
-70 -335 -385 -133 -137 -444 -425 -452 -418 -3 4 -7 136 -8 294 -2 207 -6
301 -16 336 -12 42 -11 49 1 58 60 38 590 135 753 138 54 1 57 0 57 -23z
m-900 -169 c0 -7 -7 -67 -15 -132 -12 -92 -14 -169 -9 -330 6 -182 4 -230 -14
-360 -16 -111 -23 -231 -28 -457 l-6 -308 -27 6 c-61 15 -159 71 -252 146
-132 106 -168 155 -210 285 -29 92 -30 276 -1 415 19 89 79 253 107 288 6 8
30 47 54 86 42 71 230 268 296 309 17 11 43 29 58 42 32 26 47 29 47 10z m904
-169 c24 -85 11 -441 -20 -563 -32 -123 -102 -248 -186 -335 -156 -159 -549
-483 -562 -462 -10 17 -26 288 -26 456 l0 181 68 59 c37 32 124 120 193 195
69 75 146 152 170 171 24 19 110 98 191 177 82 79 152 143 157 143 5 0 12 -10
15 -22z m-1917 -223 c120 -54 183 -160 183 -308 0 -105 -21 -166 -80 -229 -82
-89 -254 -127 -339 -76 -109 65 -168 147 -191 264 -24 124 28 246 137 320 100
68 184 77 290 29z m2313 -430 c39 -20 63 -68 55 -106 -9 -38 -61 -99 -86 -99
-28 0 -87 57 -94 90 -9 42 12 98 43 115 35 18 47 18 82 0z m-2254 -518 c76
-25 176 -101 299 -228 111 -115 149 -173 180 -275 18 -59 4 -56 -17 4 -17 47
-50 96 -59 87 -3 -2 -6 5 -6 17 -1 11 -17 36 -36 53 -19 18 -37 39 -39 46 -3
8 -7 5 -10 -8 -4 -14 -2 -22 6 -20 19 4 20 -56 0 -70 -10 -7 -14 -13 -10 -13
5 0 4 -6 -2 -13 -13 -15 -44 -124 -44 -149 1 -10 -4 -18 -9 -18 -6 0 -6 -7 0
-19 6 -10 7 -21 4 -25 -3 -3 2 -14 11 -25 13 -15 14 -21 5 -27 -9 -5 -51 32
-130 114 -64 67 -144 144 -177 170 -33 26 -91 72 -129 103 -112 91 -252 191
-264 187 -5 -2 25 -53 68 -113 43 -61 90 -126 103 -145 14 -19 54 -69 90 -111
36 -42 88 -105 117 -140 29 -35 62 -75 75 -89 13 -14 59 -66 103 -115 44 -50
121 -133 172 -185 l93 -95 -43 -3 c-24 -2 -90 1 -148 6 -176 15 -286 72 -452
232 -147 141 -216 235 -261 352 -19 51 -40 113 -45 138 -15 66 -35 344 -27
375 l7 27 262 -4 c207 -4 273 -8 313 -21z m2214 6 c3 -3 -2 -8 -10 -11 -8 -2
-40 -30 -70 -61 -88 -89 -320 -300 -380 -345 -78 -58 -332 -279 -410 -356 -36
-36 -99 -105 -140 -154 -86 -102 -106 -118 -120 -96 -13 20 -13 292 1 366 15
84 53 154 147 271 246 305 475 412 852 397 68 -3 127 -8 130 -11z m-1362 -469
l52 -7 0 -256 c0 -215 6 -409 22 -681 l3 -45 -74 -7 c-41 -4 -75 -7 -77 -5 -1
1 -4 228 -7 505 -6 468 -5 502 11 502 9 0 41 -3 70 -6z m-340 -154 c0 -9 -3
-7 -8 5 -5 11 -8 29 -8 40 0 16 2 15 8 -5 4 -14 8 -32 8 -40z m719 -496 c-3
-3 -12 -4 -19 -1 -8 3 -5 6 6 6 11 1 17 -2 13 -5z"/>
<path d="M1930 3444 c-11 -28 5 -74 27 -82 18 -5 34 42 27 78 -8 38 -40 41
-54 4z"/>
<path d="M2305 2119 c-4 -6 -5 -12 -2 -15 2 -3 7 2 10 11 7 17 1 20 -8 4z"/>
<path d="M1538 2907 c-76 -34 -104 -90 -100 -199 3 -67 112 -158 187 -158 27
0 98 52 128 92 44 59 32 162 -27 226 -45 50 -125 66 -188 39z"/>
</g>
</svg>
